<svg width="23" height="21" viewBox="0 0 23 21" fill="none" xmlns="http://www.w3.org/2000/svg">
<path fill-rule="evenodd" clip-rule="evenodd" d="M11.5 0C11.8413 0 12.165 0.153789 12.3835 0.419773L17.7886 6.9998H21.85C22.2041 6.9998 22.5385 7.16531 22.7564 7.44847C22.9744 7.73163 23.0515 8.10086 22.9657 8.44938L20.6764 17.7387C20.5285 18.5986 20.1459 19.411 19.5463 20.0192C18.9328 20.6416 18.1186 21.0171 17.2373 20.9994H5.76271C4.88138 21.0171 4.06724 20.6416 3.45366 20.0192C2.85411 19.411 2.47146 18.5986 2.32355 17.7386L0.0343465 8.44938C-0.0515415 8.10086 0.0256409 7.73163 0.243574 7.44847C0.461507 7.16531 0.795884 6.9998 1.15001 6.9998H5.21137L10.6165 0.419773C10.835 0.153789 11.1587 0 11.5 0ZM5.74124 9.33307C5.74667 9.33311 5.75211 9.33311 5.75754 9.33307H17.2425C17.2479 9.33311 17.2533 9.33311 17.2588 9.33307H20.3771L18.4343 17.2165C18.4266 17.248 18.4201 17.2797 18.415 17.3117C18.3413 17.7702 18.149 18.137 17.92 18.3693C17.6968 18.5957 17.4675 18.6713 17.279 18.6665C17.2693 18.6663 17.2597 18.6661 17.25 18.6661H5.75C5.74034 18.6661 5.73068 18.6663 5.72102 18.6665C5.53245 18.6713 5.30316 18.5957 5.08001 18.3693C4.85097 18.137 4.65874 17.7702 4.585 17.3117C4.57986 17.2797 4.57341 17.248 4.56567 17.2165L2.6229 9.33307H5.74124ZM14.7947 6.9998H8.2053L11.5 2.98897L14.7947 6.9998ZM11.5 12.833C10.8649 12.833 10.35 13.3553 10.35 13.9996C10.35 14.6439 10.8649 15.1662 11.5 15.1662C12.1351 15.1662 12.65 14.6439 12.65 13.9996C12.65 13.3553 12.1351 12.833 11.5 12.833ZM8.05 13.9996C8.05 12.0667 9.59462 10.4997 11.5 10.4997C13.4054 10.4997 14.95 12.0667 14.95 13.9996C14.95 15.9325 13.4054 17.4995 11.5 17.4995C9.59462 17.4995 8.05 15.9325 8.05 13.9996Z" fill="white"/>
</svg>
