<svg width="64" height="27" viewBox="0 0 64 27" fill="none" xmlns="http://www.w3.org/2000/svg">
<path d="M1.42288 17.5215C1.79445 16.8514 2.30115 16.3322 2.94296 15.9637C3.58478 15.5951 4.32793 15.4109 5.17243 15.4109C6.25338 15.4109 7.13165 15.6789 7.84102 16.2149C8.5504 16.7509 9.02332 17.5047 9.25977 18.4595H6.89519C6.77696 18.091 6.55739 17.7895 6.25338 17.5885C5.94936 17.3707 5.59467 17.2702 5.15554 17.2702C4.53061 17.2702 4.02392 17.488 3.66923 17.9402C3.29765 18.3925 3.12875 19.029 3.12875 19.8666C3.12875 20.6874 3.31454 21.3239 3.66923 21.7761C4.04081 22.2284 4.53061 22.4462 5.15554 22.4462C6.0507 22.4462 6.62496 22.0442 6.89519 21.2569H9.25977C9.02332 22.1949 8.5504 22.9319 7.84102 23.4847C7.13165 24.0375 6.23649 24.3055 5.17243 24.3055C4.32793 24.3055 3.60167 24.1212 2.94296 23.7527C2.30115 23.3842 1.79445 22.8649 1.42288 22.1949C1.0513 21.5249 0.882405 20.7544 0.882405 19.8498C0.865515 18.962 1.0513 18.1915 1.42288 17.5215Z" fill="#00994D"/>
<path d="M10.8307 17.5047C11.1854 16.8347 11.6583 16.3154 12.2495 15.9469C12.8575 15.5784 13.5162 15.4109 14.2594 15.4109C14.9012 15.4109 15.4754 15.5449 15.9652 15.7962C16.455 16.0474 16.8435 16.3824 17.1306 16.7677V15.5449H19.3432V24.1715H17.1306V22.9152C16.8435 23.3172 16.455 23.6522 15.9652 23.9202C15.4754 24.1883 14.9012 24.3223 14.2425 24.3223C13.5162 24.3223 12.8406 24.138 12.2495 23.7695C11.6414 23.401 11.1685 22.8649 10.8307 22.1949C10.476 21.5081 10.3071 20.7376 10.3071 19.8498C10.3071 18.962 10.476 18.1915 10.8307 17.5047ZM16.8266 18.493C16.6239 18.1078 16.3368 17.823 15.9821 17.622C15.6274 17.421 15.239 17.3205 14.8336 17.3205C14.4283 17.3205 14.0567 17.421 13.702 17.622C13.3642 17.823 13.0771 18.1078 12.8575 18.493C12.6379 18.8783 12.5366 19.3138 12.5366 19.8331C12.5366 20.3523 12.6379 20.8046 12.8575 21.1899C13.0771 21.5751 13.3473 21.8767 13.702 22.0777C14.0567 22.2787 14.4283 22.3959 14.8167 22.3959C15.2221 22.3959 15.6105 22.2954 15.9652 22.0944C16.3199 21.8934 16.607 21.6086 16.8097 21.2234C17.0124 20.8381 17.1306 20.3858 17.1306 19.8666C17.1475 19.3306 17.0293 18.8783 16.8266 18.493Z" fill="#00994D"/>
<path d="M34.5943 16.399C35.253 17.0523 35.5739 17.9568 35.5739 19.1126V24.1713H33.3782V19.4142C33.3782 18.7441 33.2093 18.2249 32.8546 17.8731C32.5168 17.5213 32.0439 17.3371 31.4359 17.3371C30.8278 17.3371 30.3718 17.5213 30.0171 17.8731C29.6625 18.2249 29.4936 18.7441 29.4936 19.4142V24.1713H27.2979V19.4142C27.2979 18.7441 27.129 18.2249 26.7743 17.8731C26.4365 17.5213 25.9636 17.3371 25.3556 17.3371C24.7475 17.3371 24.2746 17.5213 23.9199 17.8731C23.5653 18.2249 23.3964 18.7441 23.3964 19.4142V24.1713H21.2007V15.5615H23.3964V16.6C23.6835 16.2315 24.0382 15.9468 24.4942 15.7458C24.9333 15.5447 25.4231 15.4275 25.9636 15.4275C26.6392 15.4275 27.2472 15.5782 27.7877 15.863C28.3282 16.1478 28.7335 16.5498 29.0206 17.0858C29.3078 16.5833 29.7131 16.1813 30.2536 15.8965C30.7941 15.595 31.3683 15.4442 31.9932 15.4442C33.0742 15.4275 33.9356 15.7458 34.5943 16.399Z" fill="#00994D"/>
<path d="M40.8269 15.8129C41.3167 15.5449 41.891 15.4109 42.5328 15.4109C43.2759 15.4109 43.9515 15.5951 44.5427 15.9469C45.1507 16.3154 45.6236 16.8179 45.9614 17.488C46.3161 18.158 46.485 18.9285 46.485 19.8163C46.485 20.7041 46.3161 21.4746 45.9614 22.1614C45.6067 22.8482 45.1338 23.3675 44.5427 23.736C43.9346 24.1045 43.2759 24.2888 42.5328 24.2888C41.891 24.2888 41.3336 24.1547 40.8438 23.9035C40.354 23.6522 39.9655 23.3172 39.6615 22.932V26.2821H37.4658V15.5449H39.6615V16.7844C39.9317 16.3992 40.3202 16.0809 40.8269 15.8129ZM43.9177 18.4763C43.6982 18.091 43.4279 17.8062 43.0733 17.6052C42.7186 17.4042 42.347 17.3037 41.9416 17.3037C41.5363 17.3037 41.1647 17.4042 40.8269 17.6052C40.4722 17.8062 40.202 18.1078 39.9824 18.4763C39.7628 18.8615 39.6615 19.3138 39.6615 19.8331C39.6615 20.3523 39.7628 20.8046 39.9824 21.1899C40.202 21.5751 40.4722 21.8599 40.8269 22.0609C41.1816 22.2619 41.5532 22.3624 41.9416 22.3624C42.347 22.3624 42.7355 22.2619 43.0733 22.0442C43.4279 21.8432 43.6982 21.5416 43.9177 21.1564C44.1373 20.7711 44.2387 20.3188 44.2387 19.7828C44.2387 19.3138 44.1373 18.8615 43.9177 18.4763Z" fill="#00994D"/>
<path d="M49.8965 23.7526C49.2209 23.3841 48.6973 22.8648 48.3257 22.1948C47.9373 21.5247 47.7515 20.7375 47.7515 19.8664C47.7515 18.9786 47.9541 18.2081 48.3426 17.5381C48.7311 16.868 49.2716 16.3488 49.9471 15.9803C50.6227 15.6117 51.3828 15.4275 52.2273 15.4275C53.0549 15.4275 53.8149 15.6117 54.5074 15.9803C55.183 16.3488 55.7235 16.868 56.1119 17.5381C56.5004 18.2081 56.7031 18.9954 56.7031 19.8664C56.7031 20.7542 56.5004 21.5247 56.095 22.1948C55.6897 22.8648 55.1492 23.3841 54.4567 23.7526C53.7642 24.1211 53.0042 24.3054 52.1597 24.3054C51.3152 24.3054 50.5552 24.1211 49.8965 23.7526ZM53.2744 22.1278C53.6291 21.9435 53.8994 21.642 54.1189 21.2567C54.3216 20.8715 54.4398 20.4024 54.4398 19.8497C54.4398 19.0289 54.2203 18.4091 53.7811 17.9568C53.342 17.5213 52.8184 17.3036 52.1935 17.3036C51.5686 17.3036 51.045 17.5213 50.6227 17.9568C50.2005 18.3924 49.9809 19.0289 49.9809 19.8497C49.9809 20.6705 50.1836 21.2902 50.6059 21.7425C51.0112 22.178 51.5348 22.3958 52.1597 22.3958C52.5482 22.4125 52.9198 22.312 53.2744 22.1278Z" fill="#00994D"/>
<path d="M1.42288 4.7575C1.79445 4.08747 2.30115 3.5682 2.94296 3.19968C3.58478 2.83117 4.32793 2.64691 5.17243 2.64691C6.25338 2.64691 7.13165 2.91492 7.84102 3.45095C8.5504 3.98697 9.02332 4.74075 9.25977 5.69554H6.89519C6.77696 5.32702 6.55739 5.02551 6.25338 4.8245C5.94936 4.60674 5.59467 4.50624 5.15554 4.50624C4.53061 4.50624 4.02392 4.724 3.66923 5.17627C3.29765 5.62853 3.12875 6.26506 3.12875 7.10259C3.12875 7.92338 3.31454 8.5599 3.66923 9.01217C4.04081 9.46444 4.53061 9.6822 5.15554 9.6822C6.0507 9.6822 6.62496 9.28018 6.89519 8.4929H9.25977C9.02332 9.43094 8.5504 10.168 7.84102 10.7207C7.13165 11.2735 6.23649 11.5415 5.17243 11.5415C4.32793 11.5415 3.60167 11.3573 2.94296 10.9888C2.30115 10.6202 1.79445 10.101 1.42288 9.43094C1.0513 8.76091 0.882405 7.99038 0.882405 7.08584C0.865515 6.21481 1.0513 5.42753 1.42288 4.7575Z" fill="#00994D"/>
<path d="M12.4521 10.9889C11.7765 10.6204 11.253 10.1011 10.8814 9.4311C10.4929 8.76108 10.3071 7.97379 10.3071 7.10276C10.3071 6.21497 10.5098 5.44444 10.8983 4.77441C11.2867 4.10438 11.8272 3.58511 12.5028 3.21659C13.1784 2.84808 13.9384 2.66382 14.7829 2.66382C15.6105 2.66382 16.3706 2.84808 17.0631 3.21659C17.7387 3.58511 18.2791 4.10438 18.6676 4.77441C19.0561 5.44444 19.2587 6.23172 19.2587 7.10276C19.2587 7.99054 19.0561 8.76108 18.6507 9.4311C18.2454 10.1011 17.7049 10.6204 17.0124 10.9889C16.3199 11.3574 15.5599 11.5417 14.7154 11.5417C13.8709 11.5417 13.1277 11.3574 12.4521 10.9889ZM15.8301 9.3641C16.1848 9.17984 16.455 8.87833 16.6746 8.49307C16.8773 8.1078 16.9955 7.63878 16.9955 7.08601C16.9955 6.26522 16.7759 5.64544 16.3368 5.19318C15.8977 4.75766 15.3741 4.5399 14.7492 4.5399C14.1242 4.5399 13.6006 4.75766 13.1784 5.19318C12.7562 5.62869 12.5366 6.26522 12.5366 7.08601C12.5366 7.90679 12.7393 8.52657 13.1615 8.97884C13.5669 9.41435 14.0905 9.63211 14.7154 9.63211C15.1038 9.64886 15.4754 9.54836 15.8301 9.3641Z" fill="#00994D"/>
<path d="M27.822 3.63526C28.4638 4.28854 28.7847 5.19307 28.7847 6.34887V11.4076H26.589V6.65038C26.589 5.9636 26.4201 5.44433 26.0654 5.07582C25.7276 4.7073 25.2547 4.52304 24.6466 4.52304C24.0386 4.52304 23.5657 4.7073 23.211 5.07582C22.8563 5.44433 22.6874 5.9636 22.6874 6.65038V11.4076H20.4917V2.79773H22.6874V3.86977C22.9745 3.50125 23.3461 3.19974 23.8021 2.99873C24.2582 2.78097 24.748 2.68047 25.3054 2.68047C26.3356 2.66372 27.1801 2.99873 27.822 3.63526Z" fill="#00994D"/>
<path d="M40.6752 4.7575C41.0468 4.08747 41.5535 3.5682 42.1953 3.19968C42.8371 2.83117 43.5803 2.64691 44.4248 2.64691C45.5057 2.64691 46.384 2.91492 47.0934 3.45095C47.8028 3.98697 48.2757 4.74075 48.5121 5.69554H46.1476C46.0293 5.32702 45.8098 5.02551 45.5057 4.8245C45.2017 4.60674 44.847 4.50624 44.4079 4.50624C43.783 4.50624 43.2763 4.724 42.9216 5.17627C42.55 5.62853 42.3811 6.26506 42.3811 7.10259C42.3811 7.92338 42.5669 8.5599 42.9216 9.01217C43.2932 9.46444 43.783 9.6822 44.4079 9.6822C45.3031 9.6822 45.8773 9.28018 46.1476 8.4929H48.5121C48.2757 9.43094 47.8028 10.168 47.0934 10.7207C46.384 11.2735 45.4889 11.5415 44.4248 11.5415C43.5803 11.5415 42.854 11.3573 42.1953 10.9888C41.5535 10.6202 41.0468 10.101 40.6752 9.43094C40.3037 8.76091 40.1348 7.99038 40.1348 7.08584C40.1348 6.21481 40.3037 5.42753 40.6752 4.7575Z" fill="#00994D"/>
<path d="M55.4879 4.75765C55.8426 4.08763 56.3155 3.56836 56.9067 3.19984C57.5147 2.83133 58.1734 2.66382 58.9166 2.66382C59.5584 2.66382 60.1326 2.79782 60.6225 3.04908C61.1123 3.30034 61.5007 3.63536 61.7879 4.02062V2.79782H64.0004V11.4077H61.7879V10.1514C61.5007 10.5534 61.1123 10.8884 60.6225 11.1564C60.1326 11.4244 59.5584 11.5584 58.8997 11.5584C58.1734 11.5584 57.4978 11.3742 56.9067 11.0057C56.2987 10.6371 55.8257 10.1011 55.4879 9.43109C55.1333 8.74431 54.9644 7.97378 54.9644 7.086C54.9644 6.19821 55.1333 5.42768 55.4879 4.75765ZM61.4838 5.74594C61.2812 5.36068 60.994 5.07592 60.6394 4.87491C60.2847 4.6739 59.8962 4.57339 59.4908 4.57339C59.0855 4.57339 58.7139 4.6739 58.3592 4.87491C58.0214 5.07592 57.7343 5.36068 57.5147 5.74594C57.2952 6.13121 57.1938 6.56672 57.1938 7.086C57.1938 7.60527 57.2952 8.05753 57.5147 8.4428C57.7343 8.82806 58.0045 9.12958 58.3592 9.33059C58.7139 9.53159 59.0855 9.64885 59.4739 9.64885C59.8793 9.64885 60.2678 9.54834 60.6225 9.34733C60.9771 9.14633 61.2643 8.86157 61.4669 8.4763C61.6696 8.09104 61.7879 7.63877 61.7879 7.1195C61.7879 6.60023 61.6865 6.11446 61.4838 5.74594Z" fill="#00994D"/>
<path d="M36.1822 8.89492C35.8275 9.46444 35.2871 9.7492 34.5439 9.7492C33.9866 9.7492 33.4968 9.56495 33.1252 9.21318C32.7367 8.86142 32.5171 8.37565 32.4665 7.75587H38.8171C38.8508 7.50461 38.8846 7.21985 38.8846 6.91834C38.8846 6.0808 38.6988 5.32702 38.3441 4.6905C37.9895 4.03722 37.4828 3.5347 36.8241 3.18293C36.1654 2.83117 35.4391 2.64691 34.6115 2.64691C33.7501 2.64691 32.9901 2.83117 32.3314 3.18293C31.6727 3.55145 31.166 4.07072 30.7944 4.74075C30.4228 5.41078 30.2539 6.19806 30.2539 7.08584C30.2539 7.97363 30.4397 8.74416 30.8113 9.41419C31.1828 10.0842 31.7064 10.6035 32.3651 10.972C33.0238 11.3405 33.7839 11.5248 34.6115 11.5248C35.6418 11.5248 36.52 11.2568 37.2294 10.7207C37.8881 10.235 38.3441 9.6152 38.6144 8.86142H36.1822V8.89492ZM33.159 4.925C33.5305 4.60674 33.9866 4.43923 34.527 4.43923C35.1013 4.43923 35.5911 4.60674 35.9796 4.94176C36.3849 5.27677 36.5876 5.72904 36.5876 6.28181H32.4665C32.5678 5.71229 32.7874 5.26002 33.159 4.925Z" fill="#00994D"/>
<path d="M54.0681 9.5649H53.1054C52.7676 9.5649 52.5311 9.4979 52.396 9.36389C52.2609 9.22989 52.1764 9.02888 52.1764 8.72737V4.5732H53.8654C53.933 4.42244 54.0005 4.27169 54.0681 4.12093C54.3383 3.60166 54.6592 3.16614 55.0477 2.78087H52.1764V0.670288H49.9639V8.74412C49.9639 10.5197 50.8928 11.4242 52.7338 11.4242H54.0512V9.5649H54.0681Z" fill="#00994D"/>
</svg>
