<svg width="214" height="88" viewBox="0 0 214 88" fill="none" xmlns="http://www.w3.org/2000/svg">
<path d="M0.869873 26.3496C0.869873 23.9556 1.26073 21.6919 2.02615 19.5748C2.80786 17.4576 3.93157 15.6011 5.39728 14.0377C6.86298 12.4579 8.6544 11.2202 10.7552 10.292C12.8561 9.36367 15.2501 8.90768 17.9372 8.90768C19.6961 8.90768 21.3083 9.07053 22.7903 9.37996C24.256 9.68939 25.6892 10.1454 27.0734 10.7317L25.1192 18.2231C24.2397 17.8811 23.2789 17.5879 22.2203 17.3436C21.178 17.0993 19.9892 16.9691 18.7026 16.9691C15.9341 16.9691 13.8658 17.8322 12.4978 19.5422C11.1298 21.2685 10.4458 23.5322 10.4458 26.3333C10.4458 29.3136 11.081 31.6261 12.3675 33.2547C13.6541 34.8833 15.8852 35.7138 19.0772 35.7138C20.2172 35.7138 21.4223 35.6161 22.7252 35.4044C24.028 35.1927 25.2169 34.867 26.308 34.3947L27.6272 42.0815C26.536 42.5375 25.168 42.9446 23.5395 43.2703C21.8946 43.6123 20.1032 43.7752 18.1326 43.7752C15.1035 43.7752 12.5141 43.3192 10.3318 42.4235C8.14955 41.5278 6.35813 40.2901 4.94128 38.7429C3.52443 37.1958 2.49844 35.3555 1.84701 33.2384C1.19559 31.1213 0.869873 28.825 0.869873 26.3496Z" fill="#F8F9FA"/>
<path d="M60.8011 26.2842C60.8011 28.8899 60.4265 31.2676 59.6611 33.4336C58.9119 35.5996 57.8208 37.4399 56.3877 38.9707C54.9545 40.5016 53.2445 41.6904 51.2577 42.521C49.2708 43.3678 47.0234 43.775 44.548 43.775C42.1214 43.775 39.9066 43.3515 37.9035 42.521C35.9166 41.6741 34.2066 40.5016 32.7735 38.9707C31.3404 37.4399 30.2329 35.5996 29.4349 33.4336C28.637 31.2676 28.2461 28.8899 28.2461 26.2842C28.2461 23.6785 28.6532 21.3171 29.4675 19.1674C30.2818 17.034 31.4218 15.1937 32.8712 13.6954C34.3206 12.1808 36.0469 11.0083 38.0338 10.1777C40.0206 9.33086 42.2029 8.92372 44.548 8.92372C46.942 8.92372 49.1406 9.34715 51.1274 10.1777C53.1143 11.0246 54.8242 12.1971 56.2574 13.6954C57.6905 15.21 58.7979 17.034 59.5959 19.1674C60.4102 21.3171 60.8011 23.6785 60.8011 26.2842ZM51.2414 26.2842C51.2414 23.3854 50.6714 21.1054 49.5151 19.4605C48.3588 17.7994 46.714 16.9688 44.5806 16.9688C42.4472 16.9688 40.786 17.7994 39.6135 19.4605C38.4409 21.1217 37.8546 23.4016 37.8546 26.2842C37.8546 29.183 38.4409 31.4793 39.6135 33.173C40.786 34.8667 42.4472 35.7299 44.5806 35.7299C46.714 35.7299 48.3751 34.883 49.5151 33.173C50.6551 31.4793 51.2414 29.183 51.2414 26.2842Z" fill="#F8F9FA"/>
<path d="M65.5239 10.9269C67.1199 10.471 69.1719 10.0312 71.6962 9.64038C74.2205 9.24953 76.8587 9.03782 79.6273 9.03782C82.4447 9.03782 84.7735 9.41238 86.6464 10.1452C88.5192 10.8781 90.0012 11.9204 91.0924 13.2558C92.1835 14.6075 92.9652 16.1872 93.4212 18.0438C93.8772 19.884 94.1215 21.9523 94.1215 24.216V42.9119H84.741V25.3397C84.741 22.3106 84.3338 20.1772 83.5521 18.9232C82.7541 17.6692 81.2721 17.0341 79.0898 17.0341C78.4221 17.0341 77.7056 17.0666 76.9564 17.1318C76.2073 17.1969 75.5233 17.2621 74.937 17.3598V42.9119H65.5239V10.9269Z" fill="#F8F9FA"/>
<path d="M98.5186 26.5938C98.5186 23.6624 98.9746 21.0893 99.8703 18.8744C100.766 16.6759 101.955 14.8356 103.421 13.3699C104.886 11.9042 106.58 10.7968 108.485 10.0313C110.391 9.28219 112.361 8.89133 114.364 8.89133C119.071 8.89133 122.784 10.3245 125.504 13.207C128.224 16.0896 129.592 20.3076 129.592 25.8935C129.592 26.4472 129.575 27.0335 129.526 27.6849C129.478 28.3364 129.445 28.9064 129.396 29.4112H108.143C108.355 31.3492 109.251 32.8801 110.847 34.0038C112.443 35.1438 114.576 35.6975 117.263 35.6975C118.99 35.6975 120.667 35.5346 122.328 35.2252C123.989 34.9158 125.341 34.5249 126.383 34.0526L127.637 41.6743C127.132 41.9186 126.465 42.1792 125.618 42.4234C124.771 42.6677 123.843 42.8957 122.817 43.0912C121.791 43.2866 120.683 43.4331 119.511 43.5634C118.338 43.6937 117.166 43.7589 115.993 43.7589C113.013 43.7589 110.423 43.3191 108.225 42.4397C106.026 41.5603 104.202 40.3552 102.753 38.8243C101.303 37.2935 100.229 35.4695 99.5446 33.3849C98.8606 31.3004 98.5186 29.0367 98.5186 26.5938ZM120.553 23.011C120.504 22.213 120.374 21.4313 120.146 20.6821C119.918 19.933 119.56 19.249 119.071 18.6627C118.582 18.0764 117.98 17.5879 117.247 17.2133C116.514 16.8387 115.602 16.6433 114.511 16.6433C113.469 16.6433 112.557 16.8224 111.808 17.1807C111.058 17.539 110.423 18.0113 109.918 18.5976C109.414 19.1839 109.023 19.8678 108.762 20.6496C108.485 21.4313 108.29 22.213 108.16 23.011H120.553Z" fill="#F8F9FA"/>
<path d="M132.767 26.3496C132.767 23.9556 133.158 21.7082 133.923 19.5748C134.705 17.4576 135.829 15.6011 137.294 14.0377C138.76 12.4579 140.552 11.2202 142.652 10.292C144.753 9.36367 147.147 8.90768 149.834 8.90768C151.593 8.90768 153.206 9.07053 154.688 9.37996C156.153 9.68939 157.586 10.1454 158.971 10.7317L157.016 18.2231C156.137 17.8811 155.176 17.5879 154.118 17.3436C153.075 17.0993 151.886 16.9691 150.6 16.9691C147.831 16.9691 145.763 17.8322 144.395 19.5422C143.027 21.2685 142.343 23.5322 142.343 26.3333C142.343 29.3136 142.978 31.6261 144.265 33.2547C145.551 34.8833 147.782 35.7138 150.974 35.7138C152.114 35.7138 153.32 35.6161 154.622 35.4044C155.925 35.1927 157.114 34.867 158.205 34.3947L159.524 42.0815C158.433 42.5375 157.065 42.9446 155.437 43.2703C153.792 43.6123 152 43.7752 150.03 43.7752C147.001 43.7752 144.411 43.3192 142.229 42.4235C140.047 41.5278 138.255 40.2901 136.838 38.7429C135.438 37.1958 134.396 35.3555 133.761 33.2384C133.093 31.1213 132.767 28.825 132.767 26.3496Z" fill="#F8F9FA"/>
<path d="M162.977 1.54653L172.358 0.031971V9.78706H183.627V17.5879H172.358V29.2321C172.358 31.2027 172.7 32.7824 173.4 33.9549C174.084 35.1275 175.484 35.7138 177.585 35.7138C178.595 35.7138 179.637 35.6161 180.696 35.4369C181.771 35.2415 182.748 34.9809 183.627 34.6552L184.946 41.9512C183.806 42.4072 182.552 42.8143 181.168 43.14C179.784 43.4657 178.09 43.6449 176.071 43.6449C173.514 43.6449 171.397 43.3029 169.719 42.6026C168.042 41.9023 166.69 40.9415 165.697 39.7038C164.687 38.4661 163.987 36.9678 163.596 35.2089C163.189 33.4501 162.993 31.4958 162.993 29.3624V1.54653H162.977Z" fill="#F8F9FA"/>
<path d="M199.359 8.90768C202.128 8.90768 204.44 9.2171 206.28 9.85224C208.121 10.4874 209.603 11.3831 210.726 12.5557C211.834 13.7282 212.632 15.1614 213.088 16.8388C213.544 18.5162 213.788 20.389 213.788 22.441V41.9512C212.436 42.2444 210.58 42.5864 208.186 42.9935C205.792 43.3843 202.893 43.5961 199.506 43.5961C197.372 43.5961 195.418 43.4006 193.675 43.0261C191.933 42.6515 190.435 42.0326 189.181 41.1695C187.927 40.3064 186.949 39.1827 186.282 37.7984C185.614 36.4141 185.272 34.7204 185.272 32.701C185.272 30.763 185.663 29.1344 186.445 27.7827C187.226 26.4473 188.252 25.3724 189.555 24.5744C190.858 23.7765 192.34 23.2065 194.017 22.8482C195.695 22.4899 197.437 22.3107 199.245 22.3107C200.466 22.3107 201.541 22.3596 202.486 22.4736C203.43 22.5713 204.196 22.7179 204.782 22.8807V22.0013C204.782 20.4053 204.294 19.1188 203.333 18.1579C202.372 17.1971 200.694 16.7085 198.3 16.7085C196.704 16.7085 195.125 16.8225 193.578 17.0505C192.031 17.2785 190.679 17.6042 189.555 18.0276L188.366 10.4711C188.904 10.3082 189.588 10.1291 190.418 9.93367C191.233 9.73824 192.128 9.57539 193.089 9.42882C194.05 9.28225 195.076 9.15196 196.151 9.05425C197.193 8.95653 198.268 8.90768 199.359 8.90768ZM200.124 36.349C201.053 36.349 201.932 36.3327 202.763 36.2838C203.61 36.235 204.277 36.1861 204.782 36.0884V28.9716C204.408 28.8901 203.838 28.8087 203.088 28.7273C202.339 28.6459 201.639 28.597 201.004 28.597C200.124 28.597 199.294 28.6459 198.512 28.7599C197.73 28.8576 197.046 29.0693 196.46 29.3624C195.874 29.6556 195.418 30.0464 195.076 30.5513C194.734 31.0561 194.571 31.6913 194.571 32.4404C194.571 33.9061 195.06 34.9321 196.053 35.5021C197.046 36.0721 198.398 36.349 200.124 36.349Z" fill="#F8F9FA"/>
<path d="M9.53383 81.8023C8.11698 81.8023 6.86298 81.5743 5.78813 81.1346C4.697 80.6786 3.80129 80.0435 3.08472 79.1966C2.36815 78.3661 1.81444 77.3564 1.43987 76.1838C1.0653 75.0112 0.869873 73.7247 0.869873 72.3078C0.869873 70.8747 1.0653 69.5556 1.45616 68.383C1.84701 67.2104 2.40072 66.1844 3.13358 65.3376C3.86643 64.4907 4.74585 63.8393 5.78813 63.367C6.83041 62.911 7.98669 62.683 9.28954 62.683C10.283 62.683 11.2112 62.7644 12.0744 62.9273C12.9375 63.0902 13.6052 63.3019 14.0775 63.5624L13.4749 65.5493C13.0027 65.3213 12.4652 65.1259 11.879 64.9793C11.2927 64.8327 10.4947 64.7676 9.50126 64.7676C7.46555 64.7676 5.9347 65.419 4.87614 66.7381C3.81757 68.041 3.29643 69.9138 3.29643 72.3078C3.29643 73.399 3.41043 74.3924 3.65472 75.3044C3.88271 76.2164 4.27357 76.9981 4.81099 77.6495C5.34842 78.3009 6.03242 78.8058 6.86298 79.1804C7.69355 79.5549 8.71954 79.7341 9.92468 79.7341C10.9181 79.7341 11.7487 79.6201 12.4164 79.3921C13.0841 79.1641 13.5727 78.9686 13.8821 78.8058L14.3707 80.7926C13.9635 81.0043 13.2958 81.2323 12.3838 81.4603C11.4718 81.6883 10.5272 81.8023 9.53383 81.8023Z" fill="#F8F9FA"/>
<path d="M51.4205 62.6827C52.6256 62.6827 53.6516 62.8618 54.4822 63.2038C55.3128 63.5458 55.9967 64.0181 56.5179 64.6207C57.039 65.2232 57.4136 65.9398 57.6579 66.7704C57.8859 67.6009 58.0162 68.4967 58.0162 69.4575V81.004C57.7719 81.0692 57.4299 81.1506 56.9902 81.232C56.5342 81.3134 56.0293 81.4112 55.4267 81.4926C54.8405 81.5903 54.1728 81.6554 53.4562 81.7206C52.7396 81.7857 51.9905 81.802 51.2413 81.802C50.2805 81.802 49.3848 81.688 48.5705 81.4763C47.7562 81.2646 47.0397 80.9226 46.4534 80.4666C45.8671 80.0106 45.3785 79.4243 45.0365 78.6915C44.6945 77.9749 44.5154 77.0955 44.5154 76.0532C44.5154 75.0598 44.7108 74.2129 45.0854 73.5126C45.4599 72.7961 45.9974 72.2261 46.6814 71.7538C47.3654 71.2978 48.1796 70.9558 49.1242 70.7441C50.0688 70.5323 51.0948 70.4184 52.2022 70.4184C52.5279 70.4184 52.8862 70.4346 53.2445 70.4672C53.6028 70.4998 53.961 70.5486 54.303 70.6138C54.645 70.6789 54.9382 70.7278 55.1825 70.7929C55.4268 70.8581 55.6059 70.9069 55.7036 70.9558V69.8158C55.7036 69.1806 55.6548 68.5618 55.557 67.9592C55.4593 67.3567 55.2476 66.8192 54.9382 66.3307C54.6125 65.8421 54.1728 65.4512 53.5865 65.1581C53.0165 64.865 52.2511 64.7184 51.3065 64.7184C49.9548 64.7184 48.9614 64.8161 48.2936 64.9952C47.6259 65.1907 47.1537 65.3372 46.8442 65.4512L46.5185 63.4318C46.9257 63.2364 47.5445 63.0735 48.3751 62.8944C49.2382 62.7641 50.2316 62.6827 51.4205 62.6827ZM51.6322 79.75C52.5279 79.75 53.3096 79.7174 53.9936 79.6686C54.6776 79.6197 55.2313 79.5383 55.7036 79.4406V72.9915C55.443 72.8775 55.0359 72.7472 54.4659 72.6169C53.8959 72.4866 53.1142 72.4215 52.1371 72.4215C51.5671 72.4215 50.9808 72.4703 50.3619 72.5518C49.7431 72.6332 49.1894 72.8123 48.6682 73.0892C48.1471 73.3661 47.7237 73.7406 47.3979 74.2129C47.0722 74.6852 46.9094 75.304 46.9094 76.0858C46.9094 76.7697 47.0234 77.356 47.2514 77.8283C47.4794 78.3006 47.7888 78.6752 48.2122 78.9683C48.6194 79.2452 49.1242 79.4569 49.6942 79.5872C50.2479 79.6849 50.8993 79.75 51.6322 79.75Z" fill="#F8F9FA"/>
<path d="M93.1279 63.7412C93.8119 63.5457 94.7076 63.334 95.7988 63.106C96.8899 62.878 98.323 62.7478 100.066 62.7478C102.378 62.7478 104.056 63.4155 105.098 64.7672C105.212 64.6695 105.44 64.5066 105.782 64.2949C106.124 64.0669 106.547 63.8389 107.068 63.6109C107.59 63.3829 108.192 63.1712 108.892 63.0083C109.593 62.8455 110.358 62.764 111.205 62.764C112.589 62.764 113.729 62.9758 114.592 63.3829C115.456 63.79 116.123 64.3763 116.596 65.1092C117.068 65.8583 117.394 66.7377 117.556 67.78C117.719 68.8223 117.801 69.946 117.801 71.1837V81.4111H115.504V71.9166C115.504 70.7114 115.456 69.6691 115.342 68.7897C115.228 67.9103 115.016 67.1774 114.706 66.5912C114.381 66.0049 113.941 65.5815 113.338 65.2883C112.752 64.9952 111.987 64.8486 111.042 64.8486C110.326 64.8486 109.69 64.9137 109.104 65.044C108.518 65.1743 108.029 65.3372 107.606 65.5163C107.182 65.7117 106.824 65.8909 106.564 66.0863C106.287 66.2817 106.091 66.412 105.977 66.5097C106.189 67.1286 106.352 67.8126 106.45 68.578C106.547 69.3434 106.612 70.1577 106.612 71.0046V81.4111H104.316V71.9166C104.316 70.7114 104.267 69.6691 104.153 68.7897C104.056 67.9103 103.828 67.1774 103.502 66.5912C103.176 66.0049 102.704 65.5815 102.101 65.2883C101.499 64.9952 100.701 64.8486 99.7073 64.8486C98.5999 64.8486 97.6553 64.9137 96.8899 65.0277C96.1245 65.1417 95.6359 65.2557 95.4242 65.3535V81.4274H93.1279V63.7412Z" fill="#F8F9FA"/>
<path d="M153.613 87.9579H151.316V63.7412C152 63.5132 152.88 63.2852 153.938 63.0735C154.997 62.8618 156.349 62.7478 157.977 62.7478C159.329 62.7478 160.55 62.9595 161.641 63.3992C162.733 63.8389 163.677 64.474 164.475 65.2883C165.273 66.1189 165.876 67.1123 166.315 68.3011C166.755 69.49 166.967 70.8091 166.967 72.3074C166.967 73.6917 166.788 74.9783 166.413 76.1508C166.039 77.3234 165.517 78.3168 164.801 79.1637C164.084 80.0105 163.221 80.6619 162.195 81.1342C161.169 81.6065 159.997 81.8345 158.678 81.8345C157.472 81.8345 156.43 81.6716 155.551 81.3297C154.671 80.9877 154.02 80.6619 153.629 80.3525V87.9579H153.613ZM153.613 78.1214C153.824 78.2842 154.085 78.4634 154.411 78.6588C154.736 78.8542 155.095 79.0171 155.534 79.1962C155.974 79.3754 156.414 79.4894 156.919 79.6034C157.407 79.7011 157.928 79.7662 158.482 79.7662C159.622 79.7662 160.567 79.5708 161.332 79.1799C162.097 78.7891 162.716 78.2517 163.189 77.584C163.661 76.9162 164.003 76.1183 164.215 75.2063C164.426 74.2943 164.54 73.3334 164.54 72.3237C164.54 69.9134 163.938 68.0732 162.733 66.7866C161.527 65.5 159.932 64.8486 157.945 64.8486C156.805 64.8486 155.893 64.8975 155.192 65.0115C154.492 65.1092 153.971 65.2232 153.613 65.3535V78.1214Z" fill="#F8F9FA"/>
<path d="M213.984 72.2749C213.984 73.7081 213.772 75.0272 213.365 76.1998C212.958 77.3723 212.371 78.382 211.639 79.2126C210.889 80.0432 210.01 80.6783 209 81.1506C207.991 81.6229 206.867 81.8346 205.629 81.8346C204.408 81.8346 203.284 81.6066 202.258 81.1506C201.232 80.6946 200.369 80.0432 199.62 79.2126C198.871 78.382 198.301 77.3886 197.877 76.1998C197.47 75.0272 197.258 73.7081 197.258 72.2749C197.258 70.8418 197.47 69.5226 197.877 68.3501C198.284 67.1775 198.871 66.1678 199.62 65.321C200.369 64.4741 201.248 63.839 202.258 63.3667C203.268 62.9107 204.391 62.6827 205.629 62.6827C206.851 62.6827 207.974 62.9107 209 63.3667C210.01 63.8227 210.889 64.4741 211.639 65.321C212.388 66.1678 212.958 67.1612 213.365 68.3501C213.772 69.5389 213.984 70.8255 213.984 72.2749ZM211.541 72.2749C211.541 69.9786 211.003 68.1547 209.945 66.8029C208.886 65.4512 207.437 64.7672 205.629 64.7672C203.821 64.7672 202.372 65.4512 201.313 66.8029C200.255 68.1547 199.717 69.9786 199.717 72.2749C199.717 74.5712 200.255 76.3789 201.313 77.7306C202.372 79.0823 203.821 79.75 205.629 79.75C207.437 79.75 208.886 79.0823 209.945 77.7306C211.02 76.3789 211.541 74.5549 211.541 72.2749Z" fill="#F8F9FA"/>
<path d="M214 53.9859H0.869873V54.6211H214V53.9859Z" fill="#F8F9FA"/>
</svg>
