<svg width="30" height="30" viewBox="0 0 30 30" fill="none" xmlns="http://www.w3.org/2000/svg">
<path d="M15 27.5C13.6193 27.5 12.5 26.3807 12.5 25H17.5C17.5 26.3807 16.3807 27.5 15 27.5ZM25 23.75H5V21.25L7.5 20V13.125C7.5 8.7975 9.27625 5.99125 12.5 5.225V2.5H16.25C15.4349 3.57992 14.9959 4.89702 15 6.25C15 6.56422 15.0234 6.87801 15.07 7.18875H15C13.4748 7.08997 12.0038 7.77207 11.0938 9C10.3157 10.2307 9.93392 11.6705 10 13.125V21.25H20V13.125C20 12.8612 19.9913 12.6075 19.9738 12.375C20.8006 12.5458 21.6533 12.5488 22.4812 12.3837C22.495 12.6475 22.5 12.8988 22.5 13.1337V20L25 21.25V23.75ZM21.25 10C20.4947 10.0009 19.7569 9.77299 19.1337 9.34625C17.661 8.33948 17.1014 6.43451 17.7956 4.79113C18.4898 3.14775 20.2457 2.22098 21.9943 2.57505C23.7428 2.92912 24.9998 4.466 25 6.25C25 8.32107 23.3211 10 21.25 10Z" fill="#774530"/>
</svg>
