<svg width="57" height="39" viewBox="0 0 57 39" fill="none" xmlns="http://www.w3.org/2000/svg">
<path d="M38.0081 12.6977C41.7587 12.6977 44.8104 9.84939 44.8104 6.34884C44.8104 2.84828 41.7587 0 38.0081 0C34.2575 0 31.2057 2.84828 31.2057 6.34884C31.2057 9.84939 34.2575 12.6977 38.0081 12.6977Z" fill="#E0E0E0"/>
<path d="M28.0645 11.1865V7.2558C21.2952 7.2558 15.7872 12.742 15.7872 19.5315C15.7872 25.8796 20.6224 31.1136 26.8031 31.7442C27.2235 30.3989 27.7912 29.0956 28.4849 27.8765H28.0645C23.4605 27.8765 19.7185 24.1349 19.7185 19.5315C19.7185 14.9281 23.4605 11.1865 28.0645 11.1865Z" fill="#E0E0E0"/>
<path d="M28.4766 34.8373H28.0314C19.5725 34.8373 12.694 27.9589 12.694 19.5C12.694 11.0411 19.5725 4.16267 28.0314 4.16267V0C17.2574 0 8.53136 8.72603 8.53136 19.5C8.53136 30.274 17.2574 39 28.0314 39C38.8053 39 47.5314 30.274 47.5314 19.5C38.182 19.5 30.3687 26.0668 28.4766 34.8373Z" fill="#E0E0E0"/>
<path d="M8.23683 4.33671V6.22577H7.60714V4.33671H5.71808V3.70702H7.60714V1.81796H8.23683V3.70702H10.1259V4.33671H8.23683Z" fill="#BDBDBD"/>
<path d="M47.8868 32.5305V33.932H47.4196V32.5305H46.0181V32.0633H47.4196V30.6617H47.8868V32.0633H49.2884V32.5305H47.8868Z" fill="#BDBDBD"/>
<path d="M9.3337 34.9274V36.0852H8.94776V34.9274H7.78995V34.5414H8.94776V33.3836H9.3337V34.5414H10.4915V34.9274H9.3337Z" fill="#E0E0E0"/>
<path d="M53.554 14.3102V16.0774H52.965V14.3102H51.1978V13.7211H52.965V11.9539H53.554V13.7211H55.3212V14.3102H53.554Z" fill="#E0E0E0"/>
<path d="M4.59898 11.3197L3.44924 12.4695L3.06599 12.0862L4.21573 10.9365L3.06599 9.78675L3.44924 9.4035L4.59898 10.5532L5.74873 9.4035L6.13198 9.78675L4.98223 10.9365L6.13198 12.0862L5.74873 12.4695L4.59898 11.3197Z" fill="#E0E0E0"/>
<path fill-rule="evenodd" clip-rule="evenodd" d="M46.4345 3.28344C47.1036 3.28344 47.6461 2.741 47.6461 2.07186C47.6461 1.40273 47.1036 0.860282 46.4345 0.860282C45.7654 0.860282 45.2229 1.40273 45.2229 2.07186C45.2229 2.741 45.7654 3.28344 46.4345 3.28344ZM46.4345 3.65624C47.3095 3.65624 48.0189 2.94689 48.0189 2.07186C48.0189 1.19684 47.3095 0.487488 46.4345 0.487488C45.5595 0.487488 44.8501 1.19684 44.8501 2.07186C44.8501 2.94689 45.5595 3.65624 46.4345 3.65624Z" fill="#DFDFDF"/>
</svg>
