<svg width="154" height="194" viewBox="0 0 154 194" fill="none" xmlns="http://www.w3.org/2000/svg">
<path d="M105.875 38.6711C116.506 38.6711 125.125 30.0143 125.125 19.3355C125.125 8.65682 116.506 0 105.875 0C95.2435 0 86.625 8.65682 86.625 19.3355C86.625 30.0143 95.2435 38.6711 105.875 38.6711Z" fill="white"/>
<path d="M77 31.7022V19.3355C55.7448 19.3355 38.5 36.657 38.5 58.0066C38.5 78.027 53.6594 94.5025 73.0698 96.4763C74.3932 92.2064 76.1979 88.1379 78.3234 84.311H77C62.5625 84.311 50.812 72.5083 50.812 58.0066C50.812 43.505 62.5625 31.7022 77 31.7022Z" fill="white"/>
<path d="M78.3234 103.647H77C51.9349 103.647 31.562 83.1831 31.562 58.0066C31.562 32.8302 51.9349 12.3667 77 12.3667V0C45.1172 0 19.25 25.9821 19.25 58.0066C19.25 90.0312 45.1172 116.013 77 116.013C108.883 116.013 134.75 90.0312 134.75 58.0066C107.078 58.0066 83.938 77.5436 78.3234 103.647Z" fill="white"/>
<path d="M10.2666 172.288C11.1488 170.636 12.3921 169.347 13.9561 168.461C15.5202 167.534 17.365 167.091 19.3702 167.091C21.977 167.091 24.1827 167.736 25.9072 169.065C27.6317 170.395 28.7947 172.248 29.3561 174.624H23.6212C23.3004 173.698 22.8192 172.973 22.0572 172.449C21.3353 171.925 20.4129 171.643 19.3702 171.643C17.8462 171.643 16.6431 172.207 15.7207 173.295C14.8384 174.423 14.3973 175.994 14.3973 178.048C14.3973 180.062 14.8384 181.633 15.7207 182.761C16.603 183.889 17.8061 184.413 19.3702 184.413C21.5358 184.413 22.9395 183.446 23.6212 181.512H29.3962C28.7947 183.809 27.6317 185.662 25.9072 186.991C24.1827 188.36 22.0171 189.045 19.4103 189.045C17.365 189.045 15.5603 188.602 13.9962 187.676C12.4322 186.749 11.189 185.5 10.3067 183.849C9.42437 182.197 8.98322 180.264 8.98322 178.088C8.94312 175.873 9.38426 173.939 10.2666 172.288Z" fill="white"/>
<path d="M33.2062 172.288C34.0484 170.636 35.2114 169.347 36.6952 168.461C38.1791 167.575 39.7833 167.132 41.6281 167.132C43.1921 167.132 44.5958 167.454 45.7588 168.098C46.9619 168.743 47.8843 169.549 48.6062 170.515V167.494H53.9801V188.763H48.6062V185.662C47.9244 186.669 46.9619 187.474 45.7588 188.119C44.5557 188.763 43.152 189.086 41.588 189.086C39.8234 189.086 38.1791 188.642 36.6952 187.716C35.2114 186.789 34.0885 185.5 33.2062 183.809C32.364 182.117 31.9229 180.223 31.9229 178.048C31.9229 175.873 32.364 173.939 33.2062 172.288ZM47.8442 174.705C47.3228 173.778 46.6411 173.053 45.7989 172.57C44.9166 172.086 43.9942 171.804 42.9916 171.804C41.989 171.804 41.0666 172.046 40.2244 172.529C39.3822 173.013 38.7005 173.738 38.1791 174.664C37.6577 175.591 37.377 176.719 37.377 177.968C37.377 179.216 37.6577 180.385 38.1791 181.311C38.7005 182.278 39.3822 183.003 40.2244 183.527C41.0666 184.05 41.989 184.292 42.9515 184.292C43.9541 184.292 44.8765 184.05 45.7588 183.527C46.6411 183.043 47.3228 182.318 47.8041 181.392C48.3255 180.465 48.5661 179.337 48.5661 178.048C48.6062 176.799 48.3656 175.672 47.8442 174.705Z" fill="white"/>
<path d="M91.1969 169.549C92.801 171.16 93.6031 173.375 93.6031 176.235V188.723H88.2291V176.961C88.2291 175.309 87.8281 174.02 86.9859 173.134C86.1437 172.248 84.9807 171.804 83.537 171.804C82.0932 171.804 80.9302 172.248 80.088 173.134C79.2458 174.02 78.8047 175.309 78.8047 176.961V188.723H73.4708V176.961C73.4708 175.309 73.0698 174.02 72.2276 173.134C71.3854 172.248 70.2224 171.804 68.7786 171.804C67.2948 171.804 66.1317 172.248 65.2896 173.134C64.4474 174.02 64.0062 175.309 64.0062 176.961V188.723H58.6724V167.454H64.0062V170.032C64.688 169.146 65.5703 168.421 66.6531 167.937C67.7359 167.414 68.939 167.172 70.2224 167.172C71.8666 167.172 73.3505 167.534 74.6739 168.219C75.9573 168.904 77 169.911 77.6817 171.24C78.3635 169.992 79.3661 169.025 80.6896 168.3C82.013 167.575 83.4166 167.172 84.9406 167.172C87.5073 167.132 89.5927 167.937 91.1969 169.549Z" fill="white"/>
<path d="M106.356 168.098C107.559 167.454 108.963 167.132 110.487 167.132C112.291 167.132 113.936 167.575 115.42 168.461C116.903 169.347 118.026 170.636 118.909 172.288C119.751 173.939 120.192 175.873 120.192 178.048C120.192 180.223 119.751 182.157 118.909 183.809C118.066 185.5 116.903 186.789 115.42 187.716C113.936 188.642 112.332 189.086 110.487 189.086C108.923 189.086 107.559 188.763 106.396 188.119C105.193 187.474 104.231 186.669 103.509 185.702V194H98.1748V167.454H103.509V170.515C104.19 169.549 105.153 168.743 106.356 168.098ZM113.936 174.705C113.414 173.778 112.733 173.053 111.89 172.57C111.048 172.086 110.126 171.845 109.123 171.845C108.161 171.845 107.238 172.086 106.396 172.61C105.554 173.093 104.872 173.819 104.351 174.785C103.829 175.752 103.549 176.84 103.549 178.129C103.549 179.418 103.829 180.505 104.351 181.472C104.872 182.439 105.554 183.124 106.396 183.647C107.238 184.131 108.161 184.413 109.123 184.413C110.126 184.413 111.048 184.171 111.89 183.647C112.733 183.124 113.414 182.399 113.936 181.472C114.457 180.505 114.738 179.418 114.738 178.088C114.738 176.719 114.457 175.631 113.936 174.705Z" fill="white"/>
<path d="M128.494 187.716C126.849 186.789 125.566 185.541 124.644 183.849C123.721 182.197 123.24 180.264 123.24 178.088C123.24 175.913 123.721 173.98 124.684 172.328C125.646 170.676 126.93 169.387 128.614 168.461C130.258 167.534 132.103 167.091 134.148 167.091C136.194 167.091 138.038 167.534 139.683 168.461C141.327 169.387 142.65 170.676 143.613 172.328C144.575 173.98 145.057 175.913 145.057 178.088C145.057 180.264 144.575 182.197 143.573 183.849C142.61 185.5 141.247 186.789 139.602 187.716C137.918 188.642 136.073 189.086 133.988 189.086C131.943 189.086 130.138 188.602 128.494 187.716ZM136.715 183.688C137.557 183.204 138.239 182.52 138.76 181.553C139.282 180.626 139.522 179.458 139.522 178.088C139.522 176.074 139.001 174.503 137.918 173.416C136.875 172.328 135.552 171.764 134.028 171.764C132.504 171.764 131.221 172.328 130.178 173.416C129.135 174.503 128.614 176.074 128.614 178.088C128.614 180.103 129.135 181.674 130.138 182.761C131.141 183.849 132.424 184.413 133.948 184.413C134.95 184.372 135.873 184.131 136.715 183.688Z" fill="white"/>
<path d="M1.32344 140.787C2.20573 139.135 3.44896 137.846 5.01302 136.96C6.57709 136.034 8.42188 135.591 10.4271 135.591C13.0339 135.591 15.2396 136.235 16.9641 137.564C18.6885 138.894 19.8516 140.747 20.413 143.123H14.6781C14.3573 142.197 13.876 141.472 13.1141 140.948C12.3922 140.424 11.4698 140.142 10.4271 140.142C8.90313 140.142 7.7 140.706 6.77761 141.794C5.89532 142.922 5.45417 144.493 5.45417 146.547C5.45417 148.561 5.89532 150.132 6.77761 151.26C7.6599 152.388 8.86302 152.912 10.4271 152.912C12.5927 152.912 13.9964 151.945 14.6781 150.012H20.4531C19.8516 152.308 18.6885 154.161 16.9641 155.49C15.2396 156.86 13.074 157.544 10.4672 157.544C8.42188 157.544 6.61719 157.101 5.05313 156.175C3.48907 155.248 2.24584 154 1.36354 152.348C0.481253 150.696 0.0401071 148.763 0.0401071 146.588C2.90945e-06 144.372 0.441149 142.439 1.32344 140.787Z" fill="white"/>
<path d="M28.2334 156.175C26.5891 155.248 25.3058 154 24.3834 152.308C23.461 150.656 22.9797 148.723 22.9797 146.547C22.9797 144.372 23.461 142.439 24.4235 140.787C25.386 139.135 26.6693 137.846 28.3537 136.92C29.998 135.993 31.8428 135.55 33.8881 135.55C35.9334 135.55 37.7782 135.993 39.4224 136.92C41.0667 137.846 42.3902 139.135 43.3527 140.787C44.3152 142.439 44.7964 144.372 44.7964 146.547C44.7964 148.723 44.3152 150.656 43.3126 152.308C42.3501 153.959 40.9865 155.248 39.3422 156.175C37.6579 157.101 35.8131 157.544 33.7277 157.544C31.7224 157.544 29.8777 157.101 28.2334 156.175ZM36.4948 152.147C37.337 151.663 38.0188 150.978 38.5402 150.012C39.0615 149.085 39.3021 147.917 39.3021 146.547C39.3021 144.533 38.7808 142.962 37.698 141.875C36.6553 140.787 35.3318 140.223 33.8079 140.223C32.2839 140.223 31.0006 140.787 29.9579 141.875C28.9152 142.962 28.3938 144.533 28.3938 146.547C28.3938 148.561 28.9152 150.132 29.9178 151.22C30.9204 152.308 32.2037 152.872 33.7277 152.872C34.7303 152.872 35.6126 152.63 36.4948 152.147Z" fill="white"/>
<path d="M65.7308 138.007C67.2949 139.619 68.0569 141.834 68.0569 144.694V157.182H62.723V145.419C62.723 143.728 62.322 142.439 61.4798 141.512C60.6376 140.586 59.4746 140.142 58.0308 140.142C56.547 140.142 55.3839 140.586 54.5417 141.512C53.6996 142.439 53.2584 143.728 53.2584 145.419V157.182H47.9246V135.913H53.2584V138.571C53.9803 137.645 54.9027 136.92 55.9855 136.396C57.1084 135.873 58.3115 135.591 59.635 135.591C62.1214 135.631 64.1667 136.436 65.7308 138.007Z" fill="white"/>
<path d="M97.0921 140.787C97.9744 139.135 99.2176 137.846 100.782 136.96C102.346 136.034 104.191 135.591 106.196 135.591C108.803 135.591 111.008 136.235 112.733 137.564C114.457 138.894 115.62 140.747 116.182 143.123H110.407C110.086 142.197 109.605 141.472 108.843 140.948C108.121 140.424 107.198 140.142 106.156 140.142C104.632 140.142 103.429 140.706 102.506 141.794C101.624 142.922 101.183 144.493 101.183 146.547C101.183 148.561 101.624 150.132 102.506 151.26C103.388 152.388 104.592 152.912 106.156 152.912C108.321 152.912 109.725 151.945 110.407 150.012H116.182C115.58 152.308 114.417 154.161 112.693 155.49C110.968 156.86 108.803 157.544 106.196 157.544C104.15 157.544 102.346 157.101 100.782 156.175C99.2176 155.248 97.9744 154 97.0921 152.348C96.2098 150.696 95.7687 148.763 95.7687 146.588C95.7286 144.372 96.2098 142.439 97.0921 140.787Z" fill="white"/>
<path d="M133.186 140.747C134.028 139.095 135.191 137.806 136.675 136.92C138.159 136.034 139.763 135.591 141.608 135.591C143.172 135.591 144.576 135.913 145.739 136.557C146.942 137.202 147.864 138.007 148.586 138.974V135.953H154V157.222H148.626V154.12C147.944 155.127 146.982 155.933 145.779 156.578C144.576 157.222 143.172 157.544 141.608 157.544C139.843 157.544 138.199 157.101 136.715 156.175C135.231 155.248 134.108 153.959 133.226 152.267C132.384 150.576 131.943 148.682 131.943 146.507C131.903 144.332 132.344 142.439 133.186 140.747ZM147.824 143.204C147.303 142.277 146.621 141.552 145.779 141.069C144.896 140.586 143.974 140.304 142.971 140.304C141.969 140.304 141.046 140.545 140.204 141.029C139.362 141.512 138.68 142.237 138.159 143.164C137.637 144.09 137.357 145.218 137.357 146.467C137.357 147.756 137.637 148.884 138.159 149.81C138.68 150.777 139.362 151.502 140.204 152.026C141.046 152.549 141.969 152.791 142.931 152.791C143.934 152.791 144.856 152.549 145.739 152.026C146.621 151.542 147.303 150.817 147.784 149.891C148.305 148.964 148.546 147.836 148.546 146.547C148.546 145.258 148.345 144.13 147.824 143.204Z" fill="white"/>
<path d="M86.1038 150.978C85.2616 152.388 83.9381 153.073 82.1335 153.073C80.7699 153.073 79.6069 152.63 78.6444 151.784C77.6819 150.898 77.1605 149.73 77.0402 148.159H92.5204C92.6408 147.554 92.6809 146.87 92.6809 146.104C92.6809 144.05 92.2397 142.197 91.3574 140.586C90.4751 138.974 89.2319 137.766 87.6678 136.88C86.0637 135.993 84.259 135.591 82.2538 135.591C80.1684 135.591 78.3236 136.034 76.7194 136.92C75.1152 137.806 73.872 139.095 72.9897 140.747C72.1074 142.398 71.6663 144.332 71.6663 146.547C71.6663 148.723 72.1074 150.656 73.0298 152.308C73.9522 153.959 75.1954 155.248 76.7996 156.175C78.4038 157.101 80.2486 157.544 82.2939 157.544C84.8204 157.544 86.946 156.9 88.6704 155.571C90.2746 154.362 91.3975 152.831 92.0392 150.978H86.1038ZM78.7647 141.19C79.6871 140.384 80.7699 139.981 82.0934 139.981C83.497 139.981 84.7001 140.384 85.6626 141.23C86.6251 142.076 87.1465 143.164 87.1465 144.533H77.0803C77.2808 143.123 77.8423 141.995 78.7647 141.19Z" fill="white"/>
<path d="M129.737 152.67H127.371C126.569 152.67 125.967 152.509 125.646 152.187C125.285 151.865 125.125 151.341 125.125 150.616V140.304H129.216C129.376 139.941 129.536 139.578 129.697 139.216C130.338 137.967 131.141 136.839 132.063 135.913H125.125V130.636H119.751V150.576C119.751 154.966 121.997 157.182 126.529 157.182H129.777V152.67H129.737Z" fill="white"/>
</svg>
