<svg width="18" height="18" viewBox="0 0 18 18" fill="none" xmlns="http://www.w3.org/2000/svg">
<path fill-rule="evenodd" clip-rule="evenodd" d="M8.87097 17.4375C13.0799 17.4375 16.4919 13.9117 16.4919 9.5625C16.4919 5.21326 13.0799 1.6875 8.87097 1.6875C4.66202 1.6875 1.25 5.21326 1.25 9.5625C1.25 10.9749 1.60982 12.3004 2.2399 13.4465L1.25 17.4375L5.23188 16.4834C6.31325 17.0918 7.55304 17.4375 8.87097 17.4375ZM8.87097 16.226C12.4324 16.226 15.3195 13.2426 15.3195 9.5625C15.3195 5.88237 12.4324 2.89904 8.87097 2.89904C5.30955 2.89904 2.42246 5.88237 2.42246 9.5625C2.42246 10.9834 2.85285 12.3004 3.58628 13.382L3.00868 15.6202L5.21287 15.0508C6.25227 15.7919 7.51257 16.226 8.87097 16.226Z" fill="#BFC8D0"/>
<path d="M15.4034 9C15.4034 12.7279 12.4788 15.75 8.87112 15.75C7.49509 15.75 6.21842 15.3103 5.16551 14.5596L2.93271 15.1364L3.51781 12.8691C2.77485 11.7735 2.33887 10.4394 2.33887 9C2.33887 5.27208 5.26346 2.25 8.87112 2.25C12.4788 2.25 15.4034 5.27208 15.4034 9Z" fill="url(#paint0_linear)"/>
<path fill-rule="evenodd" clip-rule="evenodd" d="M8.87097 16.875C13.0799 16.875 16.4919 13.3492 16.4919 9C16.4919 4.65076 13.0799 1.125 8.87097 1.125C4.66202 1.125 1.25 4.65076 1.25 9C1.25 10.4124 1.60982 11.7379 2.2399 12.884L1.25 16.875L5.23188 15.9209C6.31325 16.5293 7.55304 16.875 8.87097 16.875ZM8.87097 15.6635C12.4324 15.6635 15.3195 12.6801 15.3195 9C15.3195 5.31987 12.4324 2.33654 8.87097 2.33654C5.30955 2.33654 2.42246 5.31987 2.42246 9C2.42246 10.4209 2.85285 11.7379 3.58628 12.8195L3.00868 15.0577L5.21287 14.4883C6.25227 15.2294 7.51257 15.6635 8.87097 15.6635Z" fill="white"/>
<path d="M6.96574 5.34378C6.78454 4.9677 6.50658 5.001 6.22577 5.001C5.72392 5.001 4.94141 5.62216 4.94141 6.77819C4.94141 7.72562 5.34543 8.76273 6.70684 10.3142C8.02071 11.8114 9.74705 12.5859 11.1802 12.5596C12.6134 12.5332 12.9083 11.2588 12.9083 10.8284C12.9083 10.6376 12.7937 10.5425 12.7148 10.5166C12.2264 10.2744 11.3256 9.82311 11.1207 9.73832C10.9157 9.65353 10.8087 9.76821 10.7422 9.8306C10.5563 10.0136 10.1879 10.553 10.0618 10.6744C9.9356 10.7957 9.74753 10.7343 9.66927 10.6884C9.38126 10.569 8.60038 10.2101 7.97794 9.58657C7.20814 8.81547 7.16296 8.55017 7.01793 8.31402C6.9019 8.12509 6.98705 8.00918 7.02953 7.95852C7.19539 7.76077 7.4244 7.45546 7.5271 7.30374C7.62981 7.15202 7.54828 6.92166 7.49935 6.77819C7.28895 6.16116 7.11069 5.64464 6.96574 5.34378Z" fill="white"/>
<defs>
<linearGradient id="paint0_linear" x1="14.5869" y1="3.9375" x2="1.9659" y2="15.3371" gradientUnits="userSpaceOnUse">
<stop stop-color="#259F46"/>
<stop offset="1" stop-color="#219653"/>
</linearGradient>
</defs>
</svg>
