<svg width="43" height="43" viewBox="0 0 43 43" fill="none" xmlns="http://www.w3.org/2000/svg">
<path d="M32.5 14C36.6353 14 40 10.8596 40 7C40 3.14041 36.6353 0 32.5 0C28.3647 0 25 3.14041 25 7C25 10.8596 28.3647 14 32.5 14Z" fill="white"/>
<path d="M21.5364 12.3339V8C14.0728 8 8 14.0489 8 21.5348C8 28.5339 13.3311 34.3047 20.1457 35C20.6093 33.5167 21.2351 32.0798 22 30.7356H21.5364C16.4603 30.7356 12.3344 26.6103 12.3344 21.5348C12.3344 16.4592 16.4603 12.3339 21.5364 12.3339Z" fill="white"/>
<path d="M21.9909 38.4104H21.5C12.1735 38.4104 4.58961 30.8265 4.58961 21.5C4.58961 12.1735 12.1735 4.58961 21.5 4.58961V0C9.621 0 0 9.621 0 21.5C0 33.379 9.621 43 21.5 43C33.379 43 43 33.379 43 21.5C32.6918 21.5 24.0771 28.7403 21.9909 38.4104Z" fill="white"/>
</svg>
